<svg width="725" height="725" viewBox="0 0 725 725" fill="none" xmlns="http://www.w3.org/2000/svg">
<path d="M416.839 501.179V562.022C416.839 576.43 422.563 590.247 432.751 600.436C442.938 610.624 456.756 616.346 471.163 616.346V652.562H253.867V616.346C268.274 616.346 282.092 610.624 292.28 600.436C302.467 590.247 308.191 576.43 308.191 562.022V501.179H416.839Z" fill="#19815E"/>
<path d="M525.487 616.343H199.544C180.333 616.343 161.91 623.974 148.327 637.558C134.743 651.141 127.112 669.564 127.112 688.775C127.112 693.577 129.02 698.184 132.416 701.579C135.811 704.974 140.418 706.883 145.22 706.883H579.811C584.613 706.883 589.22 704.974 592.615 701.579C596.01 698.184 597.919 693.577 597.919 688.775C597.919 669.564 590.288 651.141 576.703 637.558C563.121 623.974 544.698 616.343 525.487 616.343Z" fill="#10B981"/>
<path d="M199.544 688.775C199.544 669.564 207.174 651.141 220.759 637.558C234.342 623.974 252.765 616.343 271.975 616.343H199.544C180.333 616.343 161.91 623.974 148.327 637.558C134.743 651.141 127.112 669.564 127.112 688.775C127.112 693.577 129.02 698.184 132.416 701.579C135.811 704.974 140.418 706.883 145.22 706.883H217.652C212.849 706.883 208.243 704.974 204.847 701.579C201.452 698.184 199.544 693.577 199.544 688.775Z" fill="#19815E"/>
<path d="M362.516 543.911C299.506 543.328 239.308 517.74 195.161 472.776C151.015 427.812 126.539 367.154 127.113 304.144V54.9965C127.113 45.3915 130.928 36.1798 137.718 29.3881C144.511 22.5961 153.722 18.7806 163.329 18.7806H561.704C571.308 18.7806 580.52 22.5961 587.312 29.3881C594.102 36.1798 597.919 45.3915 597.919 54.9965V304.144C598.494 367.154 574.015 427.812 529.87 472.776C485.724 517.74 425.526 543.328 362.516 543.911Z" fill="#10B981"/>
<path d="M434.948 471.479C371.938 470.896 311.74 445.308 267.592 400.344C223.447 355.38 198.97 294.722 199.544 231.712V18.7806H163.329C153.722 18.7806 144.511 22.5961 137.718 29.3881C130.928 36.1798 127.113 45.3915 127.113 54.9965V304.144C126.539 367.154 151.015 427.812 195.161 472.776C239.308 517.74 299.506 543.328 362.516 543.911C401.932 543.794 440.679 533.726 475.164 514.636C509.651 495.549 538.757 468.059 559.784 434.72C522.558 458.693 479.224 471.454 434.948 471.479Z" fill="#19815E"/>
<path d="M362.515 315.533L295.371 339.399L297.327 268.162L253.867 211.684L322.225 191.53L362.515 132.751L402.805 191.53L471.163 211.684L427.704 268.162L429.659 339.399L362.515 315.533Z" fill="#19815E"/>
<path d="M476.286 194.318L414.103 175.992L377.452 122.502C375.698 120.204 373.438 118.342 370.847 117.06C368.255 115.778 365.405 115.112 362.513 115.112C359.623 115.112 356.771 115.778 354.18 117.06C351.589 118.342 349.329 120.204 347.574 122.502L310.924 175.992L248.741 194.318C245.92 195.149 243.343 196.655 241.233 198.707C239.124 200.757 237.547 203.292 236.638 206.09C235.729 208.887 235.513 211.864 236.015 214.763C236.514 217.663 237.713 220.397 239.506 222.729L279.054 274.101L277.243 338.91C277.161 341.852 277.797 344.77 279.097 347.41C280.395 350.05 282.319 352.335 284.7 354.064C287.081 355.794 289.848 356.918 292.761 357.338C295.673 357.758 298.645 357.461 301.417 356.474L362.513 334.745L423.591 356.474C426.364 357.461 429.335 357.758 432.249 357.338C435.162 356.918 437.927 355.794 440.309 354.064C442.69 352.335 444.613 350.05 445.913 347.41C447.211 344.77 447.849 341.852 447.765 338.91L445.955 274.101L485.502 222.729C487.297 220.397 488.496 217.663 488.996 214.763C489.495 211.864 489.282 208.887 488.373 206.09C487.462 203.292 485.885 200.757 483.777 198.707C481.667 196.655 479.09 195.149 476.267 194.318H476.286ZM413.342 257.116C410.805 260.415 409.482 264.49 409.594 268.651L410.825 313.486L368.579 298.457C364.654 297.08 360.375 297.08 356.447 298.457L314.201 313.486L315.433 268.669C315.547 264.508 314.223 260.434 311.684 257.134L284.341 221.588L327.366 208.913C331.36 207.734 334.826 205.213 337.18 201.778L362.513 164.784L387.864 201.76C390.218 205.195 393.684 207.716 397.679 208.895L440.703 221.57L413.342 257.116Z" fill="black"/>
<path d="M670.35 145.536H616.027V54.9965C616.027 40.5889 610.303 26.7715 600.115 16.5837C589.928 6.39602 576.109 0.672638 561.703 0.672638H163.328C148.921 0.672638 135.103 6.39602 124.915 16.5837C114.728 26.7715 109.004 40.5889 109.004 54.9965V145.536H54.6798C40.2722 145.536 26.4548 151.26 16.2671 161.448C6.07934 171.635 0.355957 185.453 0.355957 199.86V281.346C0.387646 317.149 14.5426 351.493 39.7469 376.922C64.9512 402.349 99.1695 416.808 134.971 417.156C150.181 448.984 171.815 477.321 198.51 500.382C225.204 523.442 256.383 540.73 290.083 551.155V562.019C290.083 571.624 286.268 580.835 279.476 587.628C272.683 594.42 263.472 598.235 253.867 598.235H199.543C175.54 598.264 152.528 607.813 135.554 624.785C118.581 641.76 109.033 664.771 109.004 688.775C109.004 698.379 112.819 707.591 119.611 714.383C126.404 721.176 135.615 724.991 145.22 724.991H579.811C589.415 724.991 598.627 721.176 605.419 714.383C612.211 707.591 616.027 698.379 616.027 688.775C615.998 664.771 606.449 641.76 589.477 624.785C572.502 607.813 549.491 598.264 525.487 598.235H471.163C461.558 598.235 452.347 594.42 445.555 587.628C438.762 580.835 434.947 571.624 434.947 562.019V551.155C468.648 540.73 499.826 523.442 526.521 500.382C553.215 477.321 574.849 448.984 590.06 417.156C625.861 416.808 660.08 402.349 685.284 376.922C710.487 351.493 724.642 317.149 724.674 281.346V199.86C724.674 185.453 718.95 171.635 708.763 161.448C698.575 151.26 684.757 145.536 670.35 145.536ZM36.5719 281.346V199.86C36.5719 195.058 38.4797 190.451 41.8755 187.056C45.2715 183.661 49.8772 181.752 54.6798 181.752H109.004V304.144C109.004 329.678 112.745 355.076 120.104 379.527C96.802 375.719 75.6108 363.757 60.3109 345.774C45.0109 327.791 36.5976 304.957 36.5719 281.346ZM579.811 688.775H145.22C145.22 674.368 150.944 660.55 161.131 650.363C171.319 640.175 185.137 634.451 199.543 634.451H525.487C539.893 634.451 553.712 640.175 563.899 650.363C574.087 660.55 579.811 674.368 579.811 688.775ZM408.89 598.235H316.539C322.938 587.24 326.306 574.742 326.299 562.019V559.068C350.283 563.003 374.747 563.003 398.731 559.068V562.019C398.825 574.782 402.333 587.285 408.89 598.235ZM362.515 525.803C304.329 525.153 248.775 501.452 208.04 459.9C167.304 418.345 144.713 362.332 145.22 304.144V54.9965C145.22 50.1939 147.128 45.5882 150.523 42.1922C153.919 38.7964 158.525 36.8886 163.328 36.8886H561.703C566.505 36.8886 571.112 38.7964 574.507 42.1922C577.902 45.5882 579.811 50.1939 579.811 54.9965V304.144C580.318 362.332 557.726 418.345 516.99 459.9C476.255 501.452 420.701 525.153 362.515 525.803ZM688.458 281.346C688.433 304.957 680.02 327.791 664.719 345.774C649.419 363.757 628.228 375.719 604.926 379.527C612.285 355.076 616.027 329.678 616.027 304.144V181.752H670.35C675.153 181.752 679.759 183.661 683.155 187.056C686.55 190.451 688.458 195.058 688.458 199.86V281.346Z" fill="black"/>
</svg>
