<svg width="698" height="647" viewBox="0 0 698 647" fill="none" xmlns="http://www.w3.org/2000/svg">
<path d="M54.9912 454.251H641.404V550.334C641.404 572.426 623.495 590.334 601.404 590.334H94.9912C72.8999 590.334 54.9912 572.426 54.9912 550.334V454.251Z" fill="#10B981"/>
<path d="M54.9912 415.22H641.404V511.303C641.404 533.395 623.495 551.303 601.404 551.303H94.9912C72.8999 551.303 54.9912 533.395 54.9912 511.303V415.22Z" fill="#19815E"/>
<path d="M65.5544 121.867L23.1179 143.77V334.05V425.767L103.884 483.262H558.365L648.714 455.883L685.674 391.544V224.536L670.616 143.77L630.918 121.867H65.5544Z" fill="#10B981"/>
<path d="M396.534 402.011H302.102V501.311L333.254 527.596L380.957 518.834L396.534 477.946V402.011Z" fill="#19815E"/>
<path d="M451.428 121.1H244.968V52.7819C260.875 42.4003 293.192 21.6371 295.201 21.6371C297.211 21.6371 347.612 18.2882 372.561 16.6138L421.287 28.1675L446.907 54.7913L451.428 121.1Z" fill="#19815E"/>
<path d="M654.439 440.789V552.857C654.439 580.874 631.516 603.797 603.499 603.797H94.0985C66.0815 603.797 43.1584 580.874 43.1584 552.857V440.789" stroke="black" stroke-width="35" stroke-miterlimit="10" stroke-linecap="round" stroke-linejoin="round"/>
<path d="M348.799 527.387C320.782 527.387 297.859 504.464 297.859 476.447V400.037H399.739V476.447C399.739 504.464 376.816 527.387 348.799 527.387Z" stroke="black" stroke-width="35" stroke-miterlimit="10" stroke-linecap="round" stroke-linejoin="round"/>
<path d="M297.859 476.447H119.569C63.5345 476.447 17.6885 430.601 17.6885 374.567V170.807C17.6885 142.79 40.6115 119.867 68.6285 119.867H628.969C656.986 119.867 679.909 142.79 679.909 170.807V374.567C679.909 430.601 634.063 476.447 578.029 476.447H399.739" stroke="black" stroke-width="35" stroke-miterlimit="10" stroke-linecap="round" stroke-linejoin="round"/>
<path d="M450.679 119.867H246.919V68.9269C246.919 40.9098 269.842 17.9868 297.859 17.9868H399.739C427.756 17.9868 450.679 40.9098 450.679 68.9269V119.867Z" stroke="black" stroke-width="35" stroke-miterlimit="10" stroke-linecap="round" stroke-linejoin="round"/>
<path d="M119.569 629.267V603.797" stroke="black" stroke-width="35" stroke-miterlimit="10" stroke-linecap="round" stroke-linejoin="round"/>
<path d="M578.029 629.267V603.797" stroke="black" stroke-width="35" stroke-miterlimit="10" stroke-linecap="round" stroke-linejoin="round"/>
</svg>
