<svg width="725" height="725" viewBox="0 0 725 725" fill="none" xmlns="http://www.w3.org/2000/svg">
<path d="M712.452 121.415H84.7329V507.704H712.452V121.415Z" fill="#10B981"/>
<path d="M275.39 217.987C240.082 219.384 206.712 234.5 182.377 260.122C158.044 285.742 144.666 319.847 145.09 355.18V386.989C145.09 406.198 137.459 424.62 123.875 438.203C110.292 451.786 91.8701 459.418 72.6606 459.418C72.6606 478.627 80.2915 497.049 93.8747 510.632C107.458 524.215 125.88 531.847 145.09 531.847H277.876C313.094 531.847 346.869 517.857 371.771 492.955C396.673 468.052 410.663 434.278 410.663 399.06V350.774C410.667 333.124 407.152 315.652 400.323 299.377C393.495 283.102 383.491 268.352 370.896 255.99C358.301 243.626 343.368 233.898 326.969 227.372C310.571 220.847 293.036 217.657 275.39 217.987Z" fill="#19815E"/>
<path d="M471.709 425.617L446.878 483.561H229.591C207.18 483.561 185.687 492.463 169.841 508.311C153.993 524.157 145.09 545.651 145.09 568.061V664.634H374.449V543.918H450.403C460.053 543.92 469.482 541.028 477.474 535.619C485.465 530.21 491.652 522.53 495.237 513.571L522.06 446.489C524.602 440.143 524.665 433.072 522.236 426.681C519.808 420.29 515.065 415.045 508.95 411.989C505.629 410.328 502.003 409.363 498.296 409.153C494.589 408.944 490.877 409.493 487.39 410.771C483.903 412.047 480.714 414.022 478.017 416.575C475.32 419.128 473.174 422.205 471.709 425.617Z" fill="#10B981"/>
<path d="M314.091 507.704L277.877 531.847L241.662 507.704V435.275H314.091V507.704Z" fill="#19815E"/>
<path d="M522.059 446.489C524.666 439.844 524.561 432.44 521.767 425.872C518.974 419.303 513.716 414.091 507.121 411.358C500.527 408.625 493.124 408.587 486.503 411.253C479.88 413.92 474.569 419.077 471.709 425.617L463.5 444.763L511.726 472.322L522.059 446.489Z" fill="#19815E"/>
<path d="M664.165 181.773C635.203 199.864 601.741 209.458 567.593 209.458C533.445 209.458 499.983 199.864 471.021 181.773V61.0575H664.165V181.773Z" fill="#19815E"/>
<path d="M567.594 109.344L422.735 61.0575L567.594 12.7714L712.452 61.0575L567.594 109.344Z" fill="#19815E"/>
<path d="M398.592 217.987C411.926 217.987 422.735 207.178 422.735 193.844C422.735 180.51 411.926 169.701 398.592 169.701C385.258 169.701 374.449 180.51 374.449 193.844C374.449 207.178 385.258 217.987 398.592 217.987Z" fill="#19815E"/>
<path d="M314.091 470.149V435.275H241.662V507.704L277.877 531.847L314.091 507.704C297.909 507.707 282.07 503.042 268.473 494.268C285.825 491.187 301.776 482.754 314.091 470.149Z" fill="#10B981"/>
<path d="M277.877 483.561C255.466 483.561 233.972 474.658 218.126 458.81C202.279 442.964 193.376 421.471 193.376 399.06V326.631C204.519 326.624 215.49 323.865 225.311 318.601C235.133 313.337 243.503 305.728 249.678 296.452L253.734 290.416L257.79 296.452C263.964 305.728 272.335 313.337 282.156 318.601C291.977 323.865 302.948 326.624 314.091 326.631H362.377V399.06C362.377 421.471 353.474 442.964 337.627 458.81C321.781 474.658 300.287 483.561 277.877 483.561Z" fill="white"/>
<path d="M314.091 326.631C302.948 326.624 291.977 323.865 282.156 318.601C272.335 313.337 263.964 305.728 257.79 296.452L253.734 290.416L249.678 296.452C243.503 305.728 235.133 313.337 225.311 318.601C215.49 323.865 204.519 326.624 193.376 326.631V399.06C193.417 419.065 200.555 438.406 213.519 453.643C226.482 468.879 244.43 479.022 264.171 482.267C283.91 485.511 304.161 481.649 321.32 471.364C338.478 461.079 351.432 445.039 357.875 426.1C345.702 436.891 330.67 443.935 314.589 446.38C298.506 448.826 282.059 446.572 267.23 439.888C252.398 433.204 239.816 422.376 230.997 408.708C222.177 395.039 217.497 379.113 217.519 362.845V346.295C230.649 341.28 241.89 332.297 249.678 320.595L253.734 314.559L257.79 320.595C263.964 329.871 272.335 337.48 282.156 342.744C291.977 348.008 302.948 350.767 314.091 350.774H362.377V326.631H314.091Z" fill="white"/>
<path d="M508.95 411.989C505.397 410.219 501.498 409.254 497.53 409.164C500.19 414.218 501.604 419.834 501.656 425.544C501.709 431.255 500.398 436.896 497.832 441.998L489.128 459.418L511.726 472.334L522.06 446.489C524.602 440.142 524.665 433.071 522.236 426.681C519.808 420.29 515.065 415.045 508.95 411.989Z" fill="#10B981"/>
<path d="M712.451 664.633H12.3032V712.919H712.451V664.633Z" fill="white"/>
<path d="M169.233 688.776C162.83 688.776 156.689 686.233 152.161 681.705C147.633 677.177 145.09 671.036 145.09 664.633H12.3032V712.919H712.451V688.776H169.233Z" fill="#19815E"/>
<path d="M133.018 483.561H120.947L115.551 472.769C113.546 468.757 110.464 465.383 106.649 463.025C102.835 460.667 98.4395 459.418 93.955 459.418H75.5097C71.0252 459.418 66.6294 460.667 62.8149 463.025C59.0006 465.383 55.9183 468.757 53.9137 472.769L48.5178 483.561H36.4463C30.0432 483.561 23.9023 486.104 19.3746 490.632C14.8468 495.16 12.3032 501.301 12.3032 507.704V555.99C12.3032 562.392 14.8468 568.533 19.3746 573.061C23.9023 577.589 30.0432 580.133 36.4463 580.133H133.018C139.421 580.133 145.562 577.589 150.09 573.061C154.618 568.533 157.161 562.392 157.161 555.99V507.704C157.161 501.301 154.618 495.16 150.09 490.632C145.562 486.104 139.421 483.561 133.018 483.561Z" fill="#19815E"/>
<path d="M12.3032 531.847H84.7323C91.1354 531.847 97.2758 534.39 101.804 538.918C106.332 543.446 108.875 549.587 108.875 555.99V580.133H36.4463C30.0432 580.133 23.9023 577.589 19.3746 573.061C14.8468 568.533 12.3032 562.393 12.3032 555.99V531.847Z" fill="white"/>
<path d="M36.4463 531.847H12.3032V555.99C12.3032 562.393 14.8468 568.533 19.3746 573.061C23.9023 577.589 30.0432 580.133 36.4463 580.133H108.875V555.99H60.5893C54.1862 555.99 48.0453 553.446 43.5176 548.918C38.9899 544.39 36.4463 538.25 36.4463 531.847Z" fill="#10B981"/>
<path d="M463.947 538.915C454.518 529.487 439.232 529.487 429.803 538.915C420.375 548.344 420.375 563.63 429.803 573.059L463.947 607.202C473.375 616.63 488.661 616.63 498.09 607.202C507.518 597.773 507.518 582.487 498.09 573.059L463.947 538.915Z" fill="#19815E"/>
<path d="M498.098 583.066C495.856 585.309 493.193 587.088 490.263 588.303C487.334 589.516 484.194 590.141 481.022 590.141C477.851 590.141 474.71 589.516 471.781 588.303C468.851 587.088 466.189 585.309 463.947 583.066L429.809 548.916C428.351 547.421 427.097 545.741 426.079 543.918C423.409 548.509 422.327 553.853 423.001 559.121C423.676 564.389 426.068 569.288 429.809 573.059L463.947 607.209C468.107 611.266 473.591 613.687 479.393 614.026C485.193 614.365 490.922 612.6 495.528 609.057C500.133 605.513 503.304 600.426 504.462 594.732C505.619 589.038 504.684 583.117 501.828 578.056C500.802 579.878 499.547 581.561 498.098 583.066Z" fill="#19815E"/>
<path d="M482.054 557.028L447.916 591.166L463.947 607.209C466.19 609.452 468.852 611.23 471.781 612.444C474.711 613.658 477.851 614.282 481.022 614.282C484.193 614.282 487.333 613.658 490.263 612.444C493.193 611.23 495.854 609.452 498.097 607.209C500.34 604.966 502.118 602.305 503.332 599.375C504.546 596.445 505.17 593.305 505.17 590.134C505.17 586.963 504.546 583.823 503.332 580.893C502.118 577.964 500.34 575.302 498.097 573.059L482.054 557.028Z" fill="#19815E"/>
<path d="M712.451 109.344H676.237V85.8522L716.266 72.5131C718.682 71.7193 720.784 70.1833 722.275 68.1241C723.766 66.0648 724.568 63.5875 724.568 61.0452C724.568 58.5029 723.766 56.0256 722.275 53.9663C720.784 51.9072 718.682 50.3711 716.266 49.5773L571.408 1.29118C568.932 0.466456 566.255 0.466456 563.779 1.29118L418.92 49.5773C416.512 50.3795 414.418 51.9207 412.935 53.9817C411.453 56.0426 410.658 58.5186 410.664 61.0573V109.344H84.7326C81.531 109.344 78.4606 110.615 76.1967 112.879C73.9329 115.143 72.661 118.214 72.661 121.415V447.539C66.4413 447.998 60.4478 450.066 55.269 453.541C50.0902 457.017 45.9042 461.779 43.122 467.361L41.0578 471.489H36.4465C26.8418 471.489 17.6305 475.305 10.8389 482.096C4.04738 488.888 0.231934 498.098 0.231934 507.704V555.99C0.231934 565.594 4.04738 574.806 10.8389 581.597C17.6305 588.388 26.8418 592.204 36.4465 592.204H63.9333L29.445 652.562H12.3035C9.10184 652.562 6.03145 653.833 3.76756 656.098C1.50379 658.361 0.231934 661.432 0.231934 664.633C0.231934 667.835 1.50379 670.906 3.76756 673.169C6.03145 675.433 9.10184 676.705 12.3035 676.705H712.451C715.653 676.705 718.724 675.433 720.987 673.169C723.251 670.906 724.523 667.835 724.523 664.633C724.523 661.432 723.251 658.361 720.987 656.098C718.724 653.833 715.653 652.562 712.451 652.562H531.379V628.419C531.378 625.217 530.106 622.148 527.842 619.884L513.585 605.64C516.804 598.904 517.861 591.339 516.614 583.979C515.368 576.619 511.877 569.824 506.62 564.524L485.99 543.918C494.52 537.738 501.259 529.407 505.522 519.775H712.451C715.653 519.775 718.724 518.503 720.987 516.239C723.251 513.976 724.523 510.905 724.523 507.704V121.415C724.523 118.214 723.251 115.143 720.987 112.879C718.724 110.615 715.653 109.344 712.451 109.344ZM483.093 93.9039L563.779 120.799C566.255 121.624 568.932 121.624 571.408 120.799L652.094 93.9039V174.928C626.325 189.529 597.212 197.203 567.593 197.203C537.975 197.203 508.862 189.529 483.093 174.928V93.9039ZM567.593 25.4946L674.281 61.0573L567.593 96.62L460.905 61.0573L567.593 25.4946ZM434.807 77.8125L458.95 85.8522V109.344H434.807V77.8125ZM398.592 399.06C398.546 425.192 390.028 450.607 374.316 471.489H341.542C351.87 462.458 360.15 451.324 365.826 438.832C371.501 426.34 374.442 412.78 374.449 399.06V326.631C374.449 323.43 373.177 320.359 370.913 318.095C368.65 315.831 365.579 314.559 362.377 314.559H314.091C304.938 314.564 295.924 312.307 287.854 307.988C279.783 303.668 272.906 297.42 267.833 289.801L263.777 283.765C262.61 282.203 261.094 280.935 259.351 280.063C257.606 279.19 255.683 278.735 253.734 278.735C251.784 278.735 249.861 279.19 248.117 280.063C246.374 280.935 244.858 282.203 243.69 283.765L239.634 289.801C234.562 297.42 227.685 303.668 219.614 307.988C211.544 312.307 202.53 314.564 193.376 314.559C190.175 314.559 187.104 315.831 184.84 318.095C182.577 320.359 181.305 323.43 181.305 326.631V399.06C181.307 413.061 184.362 426.893 190.256 439.594C196.149 452.294 204.74 463.558 215.431 472.6C197.421 475.238 180.549 482.994 166.819 494.944C164.23 488.067 159.61 482.14 153.573 477.951C147.536 473.761 140.367 471.507 133.019 471.489H128.407L126.343 467.361C124.501 463.699 122.052 460.377 119.1 457.534C130.789 449.845 140.385 439.374 147.029 427.061C153.672 414.748 157.153 400.979 157.162 386.988V355.18C156.738 323.011 168.873 291.945 190.991 268.58C213.108 245.217 243.463 231.397 275.607 230.059C291.65 229.757 307.592 232.657 322.5 238.587C337.409 244.519 350.986 253.363 362.437 264.603C373.888 275.842 382.984 289.251 389.191 304.048C395.399 318.844 398.594 334.728 398.592 350.774V399.06ZM277.877 471.489C258.673 471.47 240.262 463.832 226.683 450.254C213.104 436.675 205.467 418.263 205.448 399.06V337.785C224.215 334.935 241.342 325.464 253.734 311.083C261.213 319.76 270.478 326.719 280.895 331.486C291.312 336.253 302.636 338.715 314.091 338.702H350.306V399.06C350.287 418.263 342.65 436.675 329.071 450.254C315.492 463.832 297.08 471.47 277.877 471.489ZM253.734 492.457C269.551 496.691 286.203 496.691 302.02 492.457V501.245L277.877 517.361L253.734 501.27V492.457ZM96.8041 625.594L112.219 652.562H96.8041V625.594ZM133.019 640.309L105.532 592.204H133.019V640.309ZM36.4465 495.632H48.518C50.7613 495.633 52.9604 495.009 54.8688 493.83C56.7772 492.65 58.3192 490.963 59.322 488.957L64.718 478.165C65.7132 476.155 67.2518 474.464 69.1593 473.283C71.0669 472.104 73.2669 471.482 75.5099 471.489H93.9552C96.1982 471.482 98.3987 472.104 100.306 473.283C102.213 474.464 103.752 476.155 104.747 478.165L110.143 488.957C111.146 490.963 112.688 492.65 114.596 493.83C116.505 495.009 118.704 495.633 120.947 495.632H133.019C136.22 495.632 139.291 496.903 141.554 499.168C143.818 501.431 145.09 504.502 145.09 507.704V555.99C145.09 559.191 143.818 562.262 141.554 564.525C139.291 566.789 136.22 568.061 133.019 568.061H120.947V555.99C120.947 546.384 117.131 537.174 110.34 530.382C103.548 523.591 94.3373 519.775 84.7326 519.775H24.375V507.704C24.375 504.502 25.6468 501.431 27.9106 499.168C30.1745 496.903 33.2449 495.632 36.4465 495.632ZM24.375 555.99V543.918H84.7326C87.9342 543.918 91.0046 545.189 93.2685 547.454C95.5322 549.717 96.8041 552.788 96.8041 555.99V568.061H36.4465C33.2449 568.061 30.1745 566.789 27.9106 564.525C25.6468 562.262 24.375 559.191 24.375 555.99ZM72.661 625.594V652.562H57.2457L72.661 625.594ZM455.413 615.744C460.676 621.065 467.475 624.599 474.854 625.851C482.232 627.103 489.818 626.008 496.54 622.721L507.236 633.416V652.562H386.521V555.99H410.664C410.65 560.747 411.581 565.46 413.403 569.855C415.224 574.25 417.899 578.24 421.274 581.593L455.413 615.744ZM489.551 581.593C490.674 582.715 491.563 584.045 492.172 585.511C492.779 586.976 493.091 588.548 493.091 590.134C493.091 591.72 492.779 593.291 492.172 594.756C491.563 596.222 490.674 597.553 489.551 598.675C487.254 600.868 484.2 602.092 481.022 602.092C477.845 602.092 474.791 600.868 472.494 598.675L463.959 590.128L481.028 573.059L489.551 581.593ZM463.947 555.99L446.878 573.059L438.344 564.524C437.191 563.41 436.271 562.079 435.638 560.606C435.006 559.133 434.673 557.549 434.659 555.946C434.645 554.343 434.95 552.753 435.557 551.27C436.165 549.786 437.06 548.439 438.194 547.306C439.327 546.172 440.676 545.275 442.158 544.669C443.642 544.062 445.232 543.756 446.835 543.77C448.438 543.784 450.022 544.117 451.494 544.75C452.967 545.382 454.3 546.302 455.413 547.455L463.947 555.99ZM484.022 509.08C480.951 516.651 475.384 522.946 468.245 526.921C461.29 521.802 452.734 519.336 444.122 519.97C435.509 520.602 427.406 524.292 421.274 530.374C420.816 530.833 420.49 531.376 420.067 531.847H374.449C371.248 531.847 368.177 533.118 365.913 535.382C363.65 537.646 362.377 540.717 362.377 543.918V652.562H217.519V592.204C217.519 589.003 216.247 585.932 213.984 583.668C211.72 581.404 208.649 580.133 205.448 580.133C202.246 580.133 199.175 581.404 196.912 583.668C194.649 585.932 193.376 589.003 193.376 592.204V652.562H157.162V582.788C160.944 579.421 163.974 575.293 166.054 570.676C168.133 566.059 169.217 561.054 169.233 555.99V528.418C175.749 518.341 184.688 510.06 195.233 504.332C205.777 498.604 217.59 495.613 229.591 495.632V507.704C229.591 509.691 230.081 511.646 231.018 513.399C231.954 515.151 233.31 516.644 234.963 517.747L271.177 541.89C273.16 543.213 275.493 543.919 277.877 543.919C280.261 543.919 282.593 543.213 284.577 541.89L320.791 517.747C322.444 516.644 323.799 515.151 324.736 513.399C325.673 511.646 326.163 509.691 326.163 507.704V495.632H446.878C449.24 495.632 451.55 494.938 453.522 493.638C455.494 492.338 457.041 490.487 457.972 488.317L469.259 461.965L496.613 477.658L484.022 509.08ZM503.542 422.781C506.934 424.5 509.562 427.421 510.915 430.975C512.268 434.529 512.247 438.459 510.857 441.998L505.666 454.963L478.831 439.632L482.803 430.386C483.617 428.483 484.81 426.768 486.311 425.343C487.811 423.92 489.588 422.818 491.531 422.106C493.473 421.393 495.541 421.086 497.606 421.202C499.672 421.317 501.691 421.855 503.542 422.781ZM700.38 495.632H515.408L533.274 450.967C536.266 443.311 536.799 434.911 534.795 426.939C532.792 418.966 528.352 411.816 522.096 406.484L542.617 355.265C543.809 352.29 543.769 348.964 542.507 346.019C541.247 343.074 538.868 340.75 535.893 339.559C532.919 338.368 529.593 338.408 526.648 339.668C523.704 340.93 521.38 343.309 520.188 346.283L499.812 397.237C491.625 396.552 483.432 398.466 476.398 402.71C469.364 406.955 463.849 413.31 460.64 420.873L438.923 471.489H403.276C416.002 449.469 422.712 424.491 422.735 399.06V350.774C422.739 331.521 418.904 312.46 411.455 294.707C404.007 276.953 393.095 260.863 379.356 247.375C365.616 233.888 349.327 223.275 331.438 216.156C313.551 209.037 294.422 205.556 275.173 205.916C236.712 207.399 200.345 223.823 173.8 251.696C147.256 279.568 132.625 316.692 133.019 355.18V386.988C133.003 398.718 129.57 410.191 123.138 420.002C116.706 429.812 107.555 437.536 96.8041 442.228V133.487H410.664V159.851C406.797 158.42 402.713 157.669 398.592 157.63C391.43 157.63 384.427 159.753 378.472 163.733C372.516 167.712 367.875 173.368 365.135 179.985C362.393 186.603 361.676 193.884 363.073 200.91C364.471 207.934 367.919 214.386 372.985 219.452C378.049 224.517 384.502 227.966 391.527 229.362C398.552 230.76 405.834 230.043 412.45 227.302C419.068 224.561 424.724 219.919 428.703 213.964C432.683 208.008 434.807 201.006 434.807 193.844V133.487H458.95V181.773C458.95 183.82 459.47 185.834 460.463 187.625C461.456 189.415 462.887 190.924 464.623 192.009C495.549 211.176 531.21 221.331 567.593 221.331C603.977 221.331 639.637 211.176 670.563 192.009C672.299 190.924 673.731 189.415 674.723 187.625C675.717 185.834 676.237 183.82 676.237 181.773V133.487H700.38V495.632ZM410.664 193.844C410.664 196.232 409.956 198.565 408.63 200.551C407.303 202.536 405.417 204.083 403.212 204.997C401.006 205.911 398.579 206.15 396.237 205.684C393.895 205.218 391.744 204.068 390.056 202.38C388.367 200.691 387.218 198.541 386.752 196.199C386.286 193.857 386.525 191.43 387.439 189.224C388.353 187.019 389.901 185.133 391.885 183.807C393.871 182.48 396.204 181.773 398.592 181.773C401.793 181.773 404.864 183.044 407.128 185.308C409.391 187.572 410.664 190.643 410.664 193.844Z" fill="black"/>
<path d="M314.092 386.988C320.759 386.988 326.163 381.584 326.163 374.917C326.163 368.25 320.759 362.845 314.092 362.845C307.424 362.845 302.02 368.25 302.02 374.917C302.02 381.584 307.424 386.988 314.092 386.988Z" fill="black"/>
<path d="M241.662 386.988C248.329 386.988 253.733 381.584 253.733 374.917C253.733 368.25 248.329 362.845 241.662 362.845C234.995 362.845 229.59 368.25 229.59 374.917C229.59 381.584 234.995 386.988 241.662 386.988Z" fill="black"/>
<path d="M293.486 414.668C289.341 418.801 283.729 421.122 277.877 421.122C272.025 421.122 266.412 418.801 262.269 414.668C259.992 412.469 256.943 411.252 253.777 411.28C250.612 411.308 247.585 412.578 245.347 414.816C243.109 417.054 241.839 420.081 241.811 423.247C241.783 426.412 243 429.461 245.199 431.738C253.87 440.397 265.623 445.259 277.877 445.259C290.131 445.259 301.884 440.397 310.555 431.738C312.753 429.461 313.97 426.412 313.943 423.247C313.915 420.081 312.645 417.054 310.407 414.816C308.169 412.578 305.142 411.308 301.977 411.28C298.812 411.252 295.762 412.469 293.486 414.668Z" fill="black"/>
<path d="M277.877 592.204C284.544 592.204 289.949 586.8 289.949 580.133C289.949 573.466 284.544 568.061 277.877 568.061C271.21 568.061 265.806 573.466 265.806 580.133C265.806 586.8 271.21 592.204 277.877 592.204Z" fill="black"/>
<path d="M277.877 640.49C284.544 640.49 289.949 635.086 289.949 628.419C289.949 621.752 284.544 616.347 277.877 616.347C271.21 616.347 265.806 621.752 265.806 628.419C265.806 635.086 271.21 640.49 277.877 640.49Z" fill="black"/>
<path d="M519.307 242.13C516.106 242.13 513.035 243.403 510.772 245.666C508.508 247.929 507.236 251 507.236 254.202V302.488C507.236 305.689 508.508 308.76 510.772 311.024C513.035 313.287 516.106 314.559 519.307 314.559C522.509 314.559 525.58 313.287 527.843 311.024C530.107 308.76 531.379 305.689 531.379 302.488V254.202C531.379 251 530.107 247.929 527.843 245.666C525.58 243.403 522.509 242.13 519.307 242.13Z" fill="black"/>
<path d="M597.772 296.452V290.416H603.808C607.009 290.416 610.08 289.144 612.343 286.881C614.607 284.617 615.879 281.546 615.879 278.345C615.879 275.143 614.607 272.072 612.343 269.809C610.08 267.546 607.009 266.273 603.808 266.273H597.772V260.238C597.772 257.036 596.499 253.965 594.236 251.702C591.973 249.438 588.902 248.166 585.7 248.166C582.499 248.166 579.428 249.438 577.165 251.702C574.901 253.965 573.629 257.036 573.629 260.238V266.273H567.593C564.392 266.273 561.321 267.546 559.057 269.809C556.794 272.072 555.521 275.143 555.521 278.345C555.521 281.546 556.794 284.617 559.057 286.881C561.321 289.144 564.392 290.416 567.593 290.416H573.629V296.452C573.629 299.653 574.901 302.724 577.165 304.988C579.428 307.251 582.499 308.524 585.7 308.524C588.902 308.524 591.973 307.251 594.236 304.988C596.499 302.724 597.772 299.653 597.772 296.452Z" fill="black"/>
<path d="M652.094 242.13C648.893 242.13 645.822 243.403 643.558 245.666C641.295 247.929 640.022 251 640.022 254.202V302.488C640.022 305.689 641.295 308.76 643.558 311.024C645.822 313.287 648.893 314.559 652.094 314.559C655.295 314.559 658.366 313.287 660.63 311.024C662.893 308.76 664.165 305.689 664.165 302.488V254.202C664.165 251 662.893 247.929 660.63 245.666C658.366 243.403 655.295 242.13 652.094 242.13Z" fill="black"/>
<path d="M712.451 700.848H12.3035C9.10184 700.848 6.03145 702.12 3.76756 704.384C1.50379 706.647 0.231934 709.718 0.231934 712.92C0.231934 716.121 1.50379 719.192 3.76756 721.455C6.03145 723.719 9.10184 724.991 12.3035 724.991H712.451C715.653 724.991 718.724 723.719 720.987 721.455C723.251 719.192 724.523 716.121 724.523 712.92C724.523 709.718 723.251 706.647 720.987 704.384C718.724 702.12 715.653 700.848 712.451 700.848Z" fill="black"/>
<path d="M640.022 362.845H591.736C588.535 362.845 585.464 364.118 583.2 366.381C580.937 368.645 579.665 371.716 579.665 374.917C579.665 378.118 580.937 381.189 583.2 383.453C585.464 385.716 588.535 386.988 591.736 386.988H640.022C643.224 386.988 646.295 385.716 648.558 383.453C650.821 381.189 652.094 378.118 652.094 374.917C652.094 371.716 650.821 368.645 648.558 366.381C646.295 364.118 643.224 362.845 640.022 362.845Z" fill="black"/>
<path d="M640.022 411.132H591.736C588.535 411.132 585.464 412.404 583.2 414.667C580.937 416.931 579.665 420.002 579.665 423.203C579.665 426.404 580.937 429.475 583.2 431.739C585.464 434.002 588.535 435.275 591.736 435.275H640.022C643.224 435.275 646.295 434.002 648.558 431.739C650.821 429.475 652.094 426.404 652.094 423.203C652.094 420.002 650.821 416.931 648.558 414.667C646.295 412.404 643.224 411.132 640.022 411.132Z" fill="black"/>
</svg>
